<?xml version="1.0" encoding="UTF-8"?>
<svg height="15" width="14" viewBox="0 0 14 15" version="1.1" xmlns="http://www.w3.org/2000/svg" xmlns:xlink="http://www.w3.org/1999/xlink">
    <defs>
        <path d="M9.40054909,8.46114605 L1.33174545,8.46114605 C0.596242748,8.46114605 9.00731032e-17,7.8649033 0,7.1294006 C-9.00731032e-17,6.3938979 0.596242748,5.79765515 1.33174545,5.79765515 L9.51295078,5.79765515 L6.12506658,2.40977095 C5.57379814,1.85850251 5.57379814,0.964719771 6.12506658,0.41345133 C6.67633502,-0.13781711 7.57011775,-0.13781711 8.12138619,0.41345133 L13.6118362,5.9039013 C13.9310814,6.22314657 14.0654485,6.65726046 14.0149372,7.07319976 C14.0654485,7.48913905 13.9310814,7.92325295 13.6118362,8.24249822 L8.12138619,13.7329482 C7.57011775,14.2842166 6.67633502,14.2842166 6.12506658,13.7329482 C5.57379814,13.1816797 5.57379814,12.287897 6.12506658,11.7366286 L9.40054909,8.46114605 Z" id="path-1"></path>
    </defs>
    <g stroke="none" stroke-width="1" fill="none" fill-rule="evenodd">
        <g transform="translate(-979.000000, -638.000000)">
        <g transform="translate(367.000000, 614.000000)">
            <g id="icon/arrow" transform="translate(607.000000, 19.000000)">
            <g id="ic/arrow" transform="translate(5.000000, 5.000000)">
                <mask id="mask-2" fill="white">
                <use xlink:href="#path-1"></use>
                </mask>
                <use fill="#FFFFFF" fill-rule="nonzero" xlink:href="#path-1"></use>
                <g mask="url(#mask-2)" fill="#FFFFFF">
                <g transform="translate(-5.000000, -5.000000)" id="Base">
                    <polygon points="0 0 24 0 24 24 0 24"></polygon>
                </g>
                </g>
            </g>
            </g>
        </g>
        </g>
    </g>
</svg>