<?xml version="1.0" encoding="UTF-8"?>
<svg width="24px" height="16px" viewBox="0 0 24 16" version="1.1" xmlns="http://www.w3.org/2000/svg" xmlns:xlink="http://www.w3.org/1999/xlink">
    <!-- Generator: sketchtool 52.2 (67145) - http://www.bohemiancoding.com/sketch -->
    <title>CBEBE3D6-B11C-4D6D-83C9-2273686EF33B</title>
    <desc>Created with sketchtool.</desc>
    <g id="headers-and-footers" stroke="none" stroke-width="1" fill="none" fill-rule="evenodd">
        <g id="header/mobile/MVP" transform="translate(-16.000000, -27.000000)" fill="#451400">
            <g id="header">
                <g id="menu-left" transform="translate(16.000000, 27.000000)">
                    <path d="M23,9 L1,9 C0.448,9 0,8.553 0,8 C0,7.447 0.448,7 1,7 L23,7 C23.552,7 24,7.447 24,8 C24,8.553 23.552,9 23,9 Z" id="Path"></path>
                    <path d="M23,2 L1,2 C0.448,2 0,1.553 0,1 C0,0.447 0.448,0 1,0 L23,0 C23.552,0 24,0.447 24,1 C24,1.553 23.552,2 23,2 Z" id="Path"></path>
                    <path d="M12,16 L1,16 C0.448,16 0,15.553 0,15 C0,14.447 0.448,14 1,14 L12,14 C12.552,14 13,14.447 13,15 C13,15.553 12.552,16 12,16 Z" id="Path"></path>
                </g>
            </g>
        </g>
    </g>
</svg>